# xmcd
#
# Track frame offsets:
#	150
#	23434
#	42295
#	69836
#	88142
#	120779
#	148486
#	177811
#	199110
#	215907
#	234305
#	251707
#	271736
#	303395
#
# Disc length: 4482 seconds
#
# Revision: 0
# Processed by: cddbd v1.5.2PL0 Copyright (c) Steve Scherf et al.
# Submitted via: dBpowerAMP V4.0
#
DISCID=bf11800e
DTITLE=Eric Green - Live at the Blues Authority
DYEAR=2008
DGENRE=Blues
TTITLE0=Figure It Out
TTITLE1=9 to 5
TTITLE2=Drink Down
TTITLE3=Big River
TTITLE4=Call the Job
TTITLE5=Honey Jar
TTITLE6=Taste Like Mama's
TTITLE7=Shake That Thing
TTITLE8=Piece of the Pie
TTITLE9=Yo May
TTITLE10=Hotrod Lincoln
TTITLE11=The Joker
TTITLE12=Who Do You Love
TTITLE13=Crackhead Joe
EXTD=
EXTT0=
EXTT1=
EXTT2=
EXTT3=
EXTT4=
EXTT5=
EXTT6=
EXTT7=
EXTT8=
EXTT9=
EXTT10=
EXTT11=
EXTT12=
EXTT13=
PLAYORDER=
